<svg xmlns="http://www.w3.org/2000/svg" width="933.333" height="933.333" viewBox="0 0 700.000000 700.000000">
	<path
		d="M168.9.7c-1.2 10.4 2.3 39.5 7.1 58.5 5 19.7 14 40.2 24.5 55.8 22.2 33 59.4 54.4 109.9 63.1 13.7 2.3 23.5 3.1 40.1 3.2 15.6 0 23.3-.6 38.5-3.2 23.2-3.9 37.4-8.3 56.5-17.6 30.3-14.7 50.4-34.7 65-65 6.1-12.6 10.6-25 14.1-38.5 1.6-6.5 1.8-7.4 2.8-14 .3-1.9 1-6.2 1.6-9.5.9-5.3 1.5-12.3 2.4-28.7l.3-4.8-11.6.5c-6.4.3-12.5.7-13.7.9-1.2.2-4.5.7-7.5 1.1-3 .4-8.8 1.3-12.9 2.1-4.1.9-8.8 1.8-10.5 2.1-1.6.2-8.9 2.4-16.2 4.8-42.9 14.1-71.3 38.1-88.9 75.3-4 8.4-11.7 29.1-12.9 34.6-4.1 19.6-6.2 32.7-6.4 40.3-.1 2.4-.5 4.3-.9 4.3-.5 0-.9-.6-.9-1.3-.2-8.3-4-31.7-7.2-43.8C327 64.2 294.7 29.3 240.8 11.6c-11.2-3.8-17.2-5.2-32.8-8.1-1.7-.3-11.1-1.6-15-2.1-7.3-.9-24-1.4-24.1-.7z"/>
	<path
		d="M193.8 166.5c-.2.1-4.1.5-8.8.8-4.7.4-9.8.9-11.5 1.2-11.1 2-14.9 2.9-22.4 5.2-43.2 12.8-74.5 41.8-91.8 84.9-1.4 3.5-6 18.9-6.7 22.4-.3 1.4-.8 3.6-1.1 5-3.5 15.2-5.2 51.7-3.2 67.5.4 3.3 1 7.8 1.3 10 .3 2.2.7 4.7.9 5.5.2.8.7 2.9 1 4.7.3 1.8 1.9 8.5 3.5 14.9 12.1 46.8 38.3 93.3 80.1 141.9 11.5 13.5 42 44.3 54.9 55.6 4.7 4.1 8.7 7.6 9 7.9.3.3 4.6 3.9 9.5 8 5 4.1 9.5 8 10 8.6 2.1 2.3 28.9 22.8 43.1 33 25.5 18.3 55.7 37.9 79.1 51.2l9.2 5.3 9.3-5.3c12.4-7 11.8-6.7 20-11.7 43.2-26.1 98.9-67.6 133.3-99.1 16.4-15 48.7-48.3 57.1-58.9 1-1.3 3.3-4 5-6 8.6-9.9 22.2-29 35.8-50.3 6.2-9.7 21-39.7 25.4-51.3 7-18.8 13.2-41.7 14.7-54 .3-2.8.9-8.2 1.4-12 1.3-10.8.6-41.5-1.4-54-9.4-61.6-42.5-103.8-95.5-121.8-20.3-7-38.6-9.7-61.5-9.1-16.9.5-22.7 1-34 3-35.1 6.3-71.7 22.1-97.7 42.1-3.1 2.4-6.3 4.9-7 5.6-4.5 4.2-4.3 4.3-12.5-2.4-22-17.7-51.1-32.4-79.8-40.3-8.9-2.4-18.9-4.6-23.2-5.2-1.3-.1-4-.5-6-.8-2.1-.3-5.4-.8-7.3-1.1-3.9-.6-31.7-1.5-32.2-1zm-66.9 64.1c16.6 8.3 16.6 48-.1 56.3-7.3 3.6-14.7.4-19.5-8.4-12.4-22.9 1.4-57 19.6-47.9zm77.2.7c4.5 3 8.6 9.3 10.3 15.8 1.8 7 1.4 18.9-.9 26.1-2.9 9.1-11.2 16.4-17.2 15.3-1-.2-2.3-.4-3-.4-2.5-.2-8.3-6.4-10.7-11.4-2.8-5.9-3.7-10.6-3.7-19 0-19.7 13.8-34.1 25.2-26.4zm76.5.2c6.7 3.9 10.6 12.9 11.8 27 .3 4.3-2 14.9-4.3 19.4-2.2 4.2-7 8.7-10.9 10.2-3.5 1.3-10.1-.7-13.4-4.1-6-6.3-8.9-15.8-8.4-27.1.5-12.3 4.4-20.8 11.5-25.6 4.4-3 8.4-2.9 13.7.2zm153.3.2c4 3.1 7.9 9.3 9.5 15.3 2 7.4 1.5 21.3-.9 26.5-1 2.2-1.9 4.2-1.9 4.5-.4 1.6-4 5.9-6.5 7.8-12.5 9.2-26.3-5.2-26.3-27.4 0-12.8 5.9-25.2 13.7-28.5 3.1-1.3 9.4-.4 12.4 1.8zm73.3-1.8c9.7 3.7 15.9 20.9 13.2 36.9-1.9 11.2-7.1 18.7-14.6 21.1-3.2 1.1-4.3 1-8.1-.7-8.1-3.6-12.9-13.3-13.3-26.7-.6-20.5 10.4-35.3 22.8-30.6zm77.7.7c12.8 6.4 16.7 32.7 7.3 48.9-3.6 6-7.7 8.9-12.7 8.9-10.5 0-18.4-11.8-18.8-27.9-.2-9.7 1.5-16.8 5.4-22.9 5-7.9 11.8-10.5 18.8-7zm-453.4 95.5c10.2 11.3 10.6 36.3.8 48-3.8 4.5-7.8 6.2-13.2 5.6-3.8-.4-5.2-1.2-8.3-4.7-5.6-6.3-8-13.7-8.1-24.5 0-11.6 2.7-19.2 8.9-25.2 6.7-6.5 13.5-6.2 19.9.8zm74.2-2.1c9.2 6.8 12.9 27.7 7.4 42-5.7 15-19.5 18.5-27.8 7.2-3.6-4.9-6.4-14.7-6.4-22.6 0-22.3 14-36.1 26.8-26.6zm77.4.7c13.6 12.2 11.2 46.1-3.8 54.2-5 2.6-12.3.6-16.8-4.7-10.1-11.9-9.4-37.9 1.2-48.6 6.1-6.1 13.2-6.4 19.4-.9zm76.5.4c3.3 3.2 7.2 11 8.2 16.4.7 3.9.7 14.1 0 18.1-.8 4.5-4.5 12.5-7.1 15.2-7 7.6-16.4 6.8-22.7-1.9-11.8-16.4-6.4-47.6 9-51.7 4.6-1.2 8.6.1 12.6 3.9zm74.7-1.4c9.7 7.2 13.4 27.6 7.7 42.5-2.9 7.7-9.6 13.8-15.2 13.8-5.3 0-9.2-2.2-12.7-7.3-6.9-10.1-8.3-27.3-3.1-39 5.2-11.9 15.1-16.2 23.3-10zm75.5-.8c8 4.3 13.4 22.9 10.7 36.4-3.7 18.4-17.2 26.3-27.6 16.1-9.3-9.1-11.6-30.2-4.8-43.4 5.3-10.4 13.1-13.7 21.7-9.1zm79.6 3.1c10 11.1 10.8 34.1 1.6 46.9-3.6 4.9-7.6 7.1-13 7.1-3.5 0-4.7-.6-8.4-4.3-6.1-6.1-8.8-13.7-8.9-24.7-.2-24.4 16.3-38.7 28.7-25zm-388.5 87c9.2 2.6 15.4 15.9 14.7 31.5-.7 16.3-10.1 28.9-20.1 27-1.1-.2-2.3-.4-2.7-.4-.5-.1-2.5-1.7-4.7-3.6-14.2-12.9-11.5-47 4.4-54.1 3.7-1.6 4.2-1.6 8.4-.4zm80.6 2.1c10.8 7.4 14.1 30.9 6.5 46-1.7 3.3-8.1 9.8-9.8 10-.4 0-1.6.2-2.7.5-8.1 1.6-16.1-6.6-19.3-19.7-1.4-5.7-.8-19 1.1-24.2 4.9-13.5 15.1-18.8 24.2-12.6zm75.4-.5c9.7 5.7 14.3 24.9 9.8 40.4-6 20.3-24.3 22.3-32.1 3.5-5.5-13.1-3.4-31.5 4.6-40.6 5.2-5.9 11.4-7 17.7-3.3zm76.3-.5c2.5 1.3 6.4 6.8 8.9 12.4 1.6 3.5 2.3 7.4 2.5 13.2.6 17.2-6.7 30.9-17.1 31.8-6 .6-12.1-3.7-15.9-11.2-1.8-3.7-4.4-15-4-17.9.1-1 .5-4.4.9-7.5.7-6.1 4.1-14.2 7.5-17.8 4.5-4.7 11.5-5.9 17.2-3zm73.5-1.3c2.9.4 9.2 7.5 11.4 13 2 4.8 2.4 7.4 2.4 16.7-.1 9.3-.4 11.8-2.4 16.3-3.2 7-9.7 12.8-14.3 12.7-6.2-.3-6.7-.5-10.3-3.6-11.6-10.2-12.5-35.7-1.8-49.7 3.7-4.9 7.6-6.3 15-5.4zm-227.3 92.6c1.9.8 4.7 3.3 6.4 5.8 12.9 18.8 4.8 52.6-12.6 52-13.7-.5-22.3-24.2-15.8-43.4 1.2-3.6 2.9-7.2 3.8-8.1.9-.9 1.8-2 2-2.5.1-.4 1.7-1.7 3.3-2.9 3.5-2.6 8.1-2.9 12.9-.9zm77.7.9c14.1 9.5 15.4 40.4 2.1 53-12.4 11.9-28.4-3.9-27.6-27.3.7-20.4 13.8-33.6 25.5-25.7zm78.6 1.8c3.5 3.3 6.8 9.4 8.1 14.7.3 1.5.6 6.7.6 11.7-.1 10.9-2.6 18.4-8.1 23.9-8.5 8.5-18.8 5.6-24.8-7-2.1-4.5-4.1-13.9-3.9-18.4.7-12.5 5.1-22.6 11.8-27 4.8-3.2 11.6-2.3 16.3 2.1zm-78.1 90.2c6.7 4.4 10.7 14.2 10.7 26.7.1 21-12.3 35-24.9 28.2-11.4-6.1-15.6-31-7.8-46.3 5.5-10.9 13.6-14.1 22-8.6z"/>
</svg>
